PathFileType	4	(X/Y/Z)	C:\InverseKin\data\OA1\Walking\OA1_80_1.trc
DataRate	CameraRate	NumFrames	NumMarkers	Units	OrigDataRate	OrigDataStartFrame	OrigNumFrames
100.00	100.00	       8	42	mm	100.00	37	       291
Frame#	Time	R.Shoulder			R.Clavicle			R.Bicep			R.Elbow			R.Forearm			R.Wrist			L.Shoulder			L.Clavicle			L.Scapula			L.Bicep			L.Elbow			L.Forearm			L.Wrist			R.ASIS			R.Iliac			R.PSIS			S2			L.PSIS			L.Iliac			L.ASIS			R.TH1			R.TH2			R.TH3			R.Knee			R.SH1			R.SH2			R.SH3			R.SH4			R.Ankle			R.Heel			R.MT5			L.TH1			L.TH2			L.TH3			L.TH4			L.Knee			L.SH1			L.SH2			L.SH3			L.Ankle			L.Heel			L.MT5			
		X1	Y1	Z1	X2	Y2	Z2	X3	Y3	Z3	X4	Y4	Z4	X5	Y5	Z5	X6	Y6	Z6	X7	Y7	Z7	X8	Y8	Z8	X9	Y9	Z9	X10	Y10	Z10	X11	Y11	Z11	X12	Y12	Z12	X13	Y13	Z13	X14	Y14	Z14	X15	Y15	Z15	X16	Y16	Z16	X17	Y17	Z17	X18	Y18	Z18	X19	Y19	Z19	X20	Y20	Z20	X21	Y21	Z21	X22	Y22	Z22	X23	Y23	Z23	X24	Y24	Z24	X25	Y25	Z25	X26	Y26	Z26	X27	Y27	Z27	X28	Y28	Z28	X29	Y29	Z29	X30	Y30	Z30	X31	Y31	Z31	X32	Y32	Z32	X33	Y33	Z33	X34	Y34	Z34	X35	Y35	Z35	X36	Y36	Z36	X37	Y37	Z37	X38	Y38	Z38	X39	Y39	Z39	X40	Y40	Z40	X41	Y41	Z41	X42	Y42	Z42	

37	0.360	-1170.92407	77.36327	1404.80225	-1146.00171	242.33566	1355.31482	-1128.13269	66.14246	1272.01233	-1157.94177	-25.33917	1100.00049	-1065.31580	10.88308	1024.41711	-1015.64117	-15.73504	907.87476	-1218.42285	461.51395	1384.19800	-1145.88440	298.75461	1358.32410	-1356.26807	354.39624	1324.50061	-1216.63867	471.70633	1140.85022	-1302.39685	513.21735	1080.43140	-1223.30835	490.61786	937.38721	-1230.86328	530.60638	850.34460	-1123.80713	124.46337	996.33545	-1254.34021	76.87518	1073.64807	-1366.76843	173.10243	1027.52124	-1378.26282	230.32004	1014.19196	-1368.98022	288.43729	1040.93945	-1260.06946	410.54843	1073.04907	-1138.70215	372.78192	1000.68561	-1066.00220	123.67343	760.16962	-1043.19531	128.82912	685.61993	-1170.59033	66.55196	642.96478	-1116.38599	88.83823	516.70178	-1152.58557	141.58000	354.09488	-1207.38574	145.02657	304.85294	-1214.42749	77.95892	423.69543	-1272.15112	83.06416	379.44257	-1384.94043	110.62148	233.46175	-1466.95532	182.95303	236.51489	-1364.24890	60.51307	110.84708	-1125.86572	385.19205	792.55048	-1116.19153	370.31241	712.28290	-1265.68262	429.15170	768.42920	-1257.71948	408.89719	685.17810	-1198.57690	381.90033	511.30026	-1145.33984	356.09689	362.37665	-1146.16614	342.63541	287.31616	-1257.08545	363.16263	281.89664	-1210.00513	340.31131	100.95081	-1278.96387	287.57855	48.88052	-1098.12610	365.88431	42.06992	
38	0.370	-1162.57532	77.66357	1405.45142	-1136.62378	243.16284	1356.59143	-1121.63477	66.41692	1272.18738	-1153.63184	-25.33101	1100.64502	-1064.88000	11.94808	1021.46838	-1018.38031	-16.80201	904.62946	-1208.12280	462.63721	1385.37073	-1136.46106	298.72220	1358.95422	-1346.79651	356.13678	1326.24646	-1202.40198	472.02084	1141.70581	-1286.07104	516.35181	1081.33350	-1205.76160	492.00571	937.96497	-1210.90991	532.64783	851.21515	-1113.88562	126.48612	997.75116	-1245.07520	77.55623	1074.64722	-1356.81067	174.08681	1027.70996	-1368.87769	230.54735	1015.21417	-1359.99487	289.01843	1041.83594	-1251.93567	411.78476	1073.21277	-1130.79773	374.31000	1000.78870	-1053.83020	124.23156	763.70239	-1030.23767	130.90286	689.08630	-1156.83777	66.90035	645.17731	-1098.94080	89.65868	519.08118	-1130.42712	144.48570	355.73679	-1183.78247	146.04442	305.45609	-1194.45801	79.77266	422.83728	-1250.81946	85.07436	376.46237	-1358.66553	112.96549	226.26686	-1441.48425	184.69777	225.49890	-1331.10840	64.46622	103.85239	-1119.78137	387.52853	791.63049	-1110.51794	371.59424	711.51514	-1260.19836	430.19958	769.69757	-1253.25232	409.54745	686.39429	-1197.00635	382.16409	511.52255	-1144.24536	356.22388	362.00464	-1145.98938	343.61176	287.31744	-1256.30969	363.22983	282.08984	-1210.07983	340.42664	101.02383	-1279.02148	287.50497	48.77415	-1098.12610	365.88431	42.06992	
39	0.380	-1154.02747	78.35844	1405.56335	-1128.48950	244.20633	1357.05981	-1115.23303	66.51045	1271.64368	-1150.73376	-25.53196	1101.28796	-1064.85754	10.69481	1019.96167	-1020.23016	-17.56526	901.28058	-1197.71326	463.81549	1386.65771	-1126.81213	300.01773	1359.55164	-1337.64758	356.72546	1326.56873	-1186.91943	473.13098	1143.39551	-1270.01294	518.71362	1081.28540	-1187.36084	493.97986	939.55646	-1191.27502	534.71271	852.82629	-1104.24487	127.79087	997.62451	-1235.44141	78.62033	1075.43018	-1348.28833	174.36624	1028.85901	-1360.10376	230.59958	1016.04694	-1351.02393	288.61240	1042.82898	-1243.97241	412.21451	1074.23706	-1121.97559	375.98724	1001.13483	-1042.07019	125.63249	766.70465	-1017.60468	131.96500	693.47382	-1142.74255	67.36918	646.88971	-1082.11353	91.26112	521.66187	-1108.20264	146.36765	356.87872	-1160.83728	148.45534	304.13919	-1175.11572	81.70267	421.35239	-1229.64636	86.46157	373.51605	-1331.75562	114.97030	218.47978	-1415.04285	185.81114	213.65482	-1297.46667	68.54049	96.53220	-1114.43140	388.90073	791.40948	-1106.39514	372.49197	710.99414	-1254.65002	430.41409	770.35529	-1249.00134	410.04022	687.26514	-1194.61877	382.66147	511.32410	-1142.80457	356.35422	361.64188	-1143.88257	343.11237	287.22055	-1255.33362	363.36411	282.26373	-1210.20605	340.41766	101.54366	-1279.02148	287.50497	48.77415	-1097.91980	365.89923	42.04937	
40	0.390	-1145.94983	78.87830	1405.92444	-1118.70203	245.90758	1357.31335	-1109.10388	67.30290	1271.56799	-1147.23608	-25.22506	1102.09949	-1064.77148	10.56830	1017.85974	-1022.54352	-18.36007	898.74774	-1187.64172	464.61081	1387.60120	-1117.43689	299.72586	1360.29102	-1327.77197	358.24823	1326.60828	-1172.47107	473.43430	1144.09387	-1253.55615	521.27472	1081.04578	-1169.20825	495.41229	940.77020	-1171.25867	537.05707	854.59814	-1095.57849	129.51186	998.12433	-1225.20923	79.50807	1076.14099	-1338.92834	174.92784	1028.99182	-1351.59595	230.49243	1016.22534	-1342.37830	289.31393	1043.38013	-1236.69617	412.67664	1074.82520	-1113.93787	378.07513	1001.63947	-1030.57227	127.04566	770.44415	-1004.58459	133.52870	697.33722	-1128.81030	68.57336	648.25507	-1065.93579	92.12834	523.89063	-1087.09851	148.95093	358.48364	-1136.38049	151.55493	304.00125	-1155.84363	83.68090	420.25308	-1207.93066	88.23526	369.49258	-1303.83337	116.84321	209.50929	-1388.08496	186.74916	201.45430	-1261.80371	73.24696	89.02594	-1107.52979	389.28778	789.32629	-1101.36304	373.65295	709.55542	-1248.75476	430.63837	771.10223	-1244.56421	410.41623	688.09338	-1192.67126	382.54944	511.19022	-1140.90198	356.44745	361.37494	-1143.06323	343.41302	286.82974	-1253.79541	363.49661	282.76038	-1209.90369	340.30112	101.27307	-1278.98572	287.70062	49.00667	-1097.91980	365.89923	42.04937	
41	0.400	-1137.19287	79.59104	1405.93604	-1109.14136	245.41541	1357.38184	-1102.73633	67.38764	1270.97534	-1144.36499	-25.77199	1102.38049	-1063.71240	10.18553	1016.03436	-1025.76575	-18.60813	895.65198	-1177.02234	465.49866	1388.64319	-1108.01770	301.17075	1360.33093	-1318.37781	359.55273	1327.02710	-1157.41992	473.96484	1145.73535	-1237.47986	523.04102	1081.35498	-1150.73438	496.91034	942.67505	-1150.60742	538.73639	855.58374	-1087.72559	130.25243	998.21313	-1216.13965	80.40260	1076.05920	-1329.60815	175.05064	1029.13062	-1342.89893	230.84261	1016.54004	-1333.58960	289.99881	1043.78186	-1227.93945	413.19254	1074.24927	-1105.64331	378.70932	1000.68756	-1019.18158	128.82515	773.22205	-993.20465	136.47281	700.09570	-1114.52783	69.01988	649.80096	-1051.01501	93.55363	526.15900	-1065.58154	151.06734	359.73419	-1112.65906	153.43266	303.21902	-1136.57751	84.32398	418.21719	-1187.19873	89.60261	365.60284	-1274.83679	118.53796	199.74828	-1359.50256	186.15715	188.96153	-1226.74927	77.39864	81.70472	-1101.29053	391.42166	789.31500	-1097.30127	375.30893	707.74921	-1243.80310	431.46262	771.97626	-1240.23938	410.39810	688.59320	-1190.99084	383.22336	511.62146	-1139.92908	356.37256	361.34430	-1141.95081	343.55841	286.57758	-1253.31006	363.72015	283.25275	-1209.66589	340.56635	101.12872	-1278.95447	287.57745	49.27431	-1097.91980	365.89923	42.04937	
42	0.410	-1128.86572	80.15610	1406.34192	-1099.73645	245.57149	1357.39355	-1096.60400	67.09676	1270.18726	-1141.43079	-26.46538	1103.32910	-1063.49634	10.63392	1014.33081	-1027.49219	-19.37459	892.71356	-1166.64282	466.30182	1389.13611	-1098.74890	301.84546	1360.60718	-1309.16052	360.55301	1327.19177	-1143.34375	475.37540	1146.85266	-1221.32764	525.31274	1080.92249	-1133.15149	498.45331	943.91400	-1130.32324	540.10645	857.58685	-1077.17163	131.94041	998.55682	-1206.41602	81.64033	1076.46777	-1320.46777	175.55557	1029.62183	-1333.84973	230.69106	1017.00720	-1325.00818	290.00400	1044.18579	-1218.33130	414.09766	1074.39880	-1097.27991	379.77759	1000.23517	-1008.70654	130.32938	775.37634	-981.82959	138.67038	702.23260	-1101.51624	69.52190	651.32599	-1035.74902	94.77187	527.76593	-1044.45374	153.55132	360.08282	-1089.14197	155.65530	301.67105	-1117.27722	85.50654	415.14819	-1165.09216	90.66105	360.07303	-1245.49573	120.38622	190.38673	-1330.79736	186.80562	175.59779	-1190.31848	82.51865	73.96867	-1095.57910	393.34827	787.71722	-1093.10144	376.03961	706.45483	-1238.16284	431.55252	772.46729	-1236.36816	410.69226	689.24634	-1188.28821	383.38055	511.52563	-1138.22729	356.49664	361.18857	-1141.04089	343.97784	286.07309	-1251.47742	363.68225	283.61319	-1209.56445	340.31296	101.19503	-1279.17932	287.61429	49.28915	-1097.72095	365.99100	42.19267	
43	0.420	-1120.27258	80.62275	1405.87964	-1090.94946	246.69138	1357.35571	-1089.52954	67.56066	1269.32434	-1138.32129	-26.20926	1103.62036	-1063.31982	10.07346	1012.28235	-1030.09717	-20.15358	889.91028	-1156.52441	467.55054	1389.36108	-1089.57410	302.03876	1360.01953	-1299.74377	361.35114	1327.37219	-1129.97046	475.92050	1147.41846	-1205.28162	527.44946	1080.56189	-1114.30786	500.52921	944.91925	-1109.88257	541.27014	858.73590	-1066.30261	133.25493	998.97290	-1196.80908	82.13097	1076.63977	-1311.08704	175.26726	1029.41760	-1324.10779	230.23987	1016.72406	-1316.03760	289.99374	1044.47034	-1209.42883	415.30426	1074.28125	-1088.84326	381.31107	999.94098	-998.45422	133.15530	776.97107	-970.49176	140.59235	704.64136	-1089.48730	69.21570	652.89844	-1020.86115	96.04539	529.48859	-1023.58289	154.84009	361.89166	-1064.99121	158.60185	300.34827	-1097.84583	86.07993	411.44867	-1143.37341	91.70936	354.57797	-1215.00732	121.97372	181.00226	-1300.88342	187.08432	162.60693	-1153.01355	85.36194	68.03658	-1089.84631	394.38611	786.86261	-1086.66357	376.63739	705.91370	-1233.12695	432.26840	772.75385	-1231.86426	410.35281	689.67987	-1185.79504	383.49307	511.76566	-1136.53186	356.44217	360.62970	-1139.91504	343.60159	285.87729	-1250.64270	363.57672	283.75974	-1209.07166	340.35800	100.99548	-1279.17932	287.61429	49.28915	-1097.78601	365.84003	42.15449	
44	0.430	-1112.02539	81.22660	1405.13489	-1081.73523	247.98721	1357.06531	-1082.59021	67.27247	1268.30957	-1135.84521	-26.74314	1104.13953	-1062.43835	9.92524	1010.05078	-1032.88818	-20.88191	887.91638	-1146.39355	468.08252	1389.47754	-1079.98560	303.40045	1360.10059	-1290.03174	362.56223	1327.20715	-1115.57690	476.45837	1147.92920	-1189.37866	529.11523	1080.22229	-1096.48523	502.49622	946.68213	-1089.48975	543.11993	860.36749	-1057.49182	135.02225	998.42004	-1185.94360	82.93080	1077.15979	-1301.39453	175.61510	1029.67065	-1314.68945	229.87453	1016.59583	-1306.25916	289.81854	1044.36938	-1201.03210	416.14389	1074.30762	-1080.79065	382.35175	999.91431	-988.03680	133.92772	778.20422	-959.19409	141.84245	705.83575	-1076.45398	69.41481	653.96387	-1007.33514	97.16169	530.81219	-1002.34009	157.59805	362.22791	-1040.07971	159.66476	299.77802	-1078.80652	87.14452	408.02411	-1121.13782	92.50663	348.35333	-1184.46765	123.58544	171.44447	-1270.55237	187.36938	149.20506	-1115.07495	90.02059	61.10943	-1084.37671	394.74826	785.04810	-1081.53967	377.29547	705.23212	-1227.39551	431.91116	773.52203	-1227.19995	410.82211	690.09509	-1182.65479	383.36261	511.11057	-1134.99951	356.34671	360.29623	-1138.65393	344.00378	286.48105	-1249.13562	363.54596	284.30142	-1208.85474	340.27948	101.13277	-1279.19238	287.52960	49.51178	-1097.78601	365.84003	42.15449	
